# xmcd CD database file
# Copyright (C) 1993-1998 Ti Kan
# 
# Track frame offsets:
#     150
#     12975
#     42300
#     61425
#     85050
#     111075
#     139350
#     157650
#     177900
#     196050
#     219450
#     241950
# 
# Disc length: 3440 seconds
# 
# Revision: 1
# Processed by: cddbd v1.4b41PL1 Copyright (c) Steve Scherf et al.
# Submitted via: DiscPlay 4.0.4
# 
DISCID=9b0d6e0c
DTITLE=Stefanos Korkolis - Stefanos Korkolis Erotics
DYEAR=1900
DGENRE=
TTITLE0=Parakseni agapi
TTITLE1=Giati - Giati - Giati;
TTITLE2=Stous pente anemous - S.Korkolis-Konstantina
TTITLE3=Ftais esy
TTITLE4=Kardia mou liono
TTITLE5=Oxi, den tha me ksexaseis
TTITLE6=Mia nixta akoma - S.Korkolis-Sofia Vossou
TTITLE7=Ksafnika
TTITLE8=Den eimai ego san to feggari
TTITLE9=Skoni kai thripsala
TTITLE10=Me ti foni tou feggariou
TTITLE11=Miso, miso
EXTD=
EXTT0=
EXTT1=
EXTT2=
EXTT3=
EXTT4=
EXTT5=
EXTT6=
EXTT7=
EXTT8=
EXTT9=
EXTT10=
EXTT11=
PLAYORDER=
